<svg width="24" height="24" fill="none" xmlns="http://www.w3.org/2000/svg"><path fill-rule="evenodd" clip-rule="evenodd" d="M12 6a1 1 0 0 0 1-1V3a1 1 0 1 0-2 0v2a1 1 0 0 0 1 1Zm0 8c-1.103 0-2-.897-2-2s.897-2 2-2 2 .897 2 2-.897 2-2 2Zm0-6c-2.206 0-4 1.794-4 4s1.794 4 4 4 4-1.794 4-4-1.794-4-4-4Zm7 3h2a1 1 0 1 1 0 2h-2a1 1 0 1 1 0-2ZM6 12a1 1 0 0 0-1-1H3a1 1 0 1 0 0 2h2a1 1 0 0 0 1-1ZM4.807 5.053a1.002 1.002 0 0 1 1.414-.025l1.439 1.39a1 1 0 0 1-1.39 1.44l-1.44-1.39a1 1 0 0 1-.023-1.415Zm12.228 3.085a1 1 0 0 0 .695-.28l1.44-1.39a1 1 0 0 0-1.39-1.44l-1.44 1.39a1 1 0 0 0 .695 1.72ZM11 19a1 1 0 1 1 2 0v2a1 1 0 1 1-2 0v-2Zm6.73-2.857a1 1 0 0 0-1.39 1.439l1.439 1.39c.195.188.445.28.695.28a1 1 0 0 0 .695-1.719l-1.439-1.39Zm-12.899 1.39 1.439-1.39a1 1 0 0 1 1.39 1.439l-1.439 1.39a.996.996 0 0 1-.695.28 1 1 0 0 1-.695-1.719Z" fill="#231F20"/><mask id="a" style="mask-type:alpha" maskUnits="userSpaceOnUse" x="2" y="2" width="20" height="20"><path fill-rule="evenodd" clip-rule="evenodd" d="M12 6a1 1 0 0 0 1-1V3a1 1 0 1 0-2 0v2a1 1 0 0 0 1 1Zm0 8c-1.103 0-2-.897-2-2s.897-2 2-2 2 .897 2 2-.897 2-2 2Zm0-6c-2.206 0-4 1.794-4 4s1.794 4 4 4 4-1.794 4-4-1.794-4-4-4Zm7 3h2a1 1 0 1 1 0 2h-2a1 1 0 1 1 0-2ZM6 12a1 1 0 0 0-1-1H3a1 1 0 1 0 0 2h2a1 1 0 0 0 1-1ZM4.807 5.053a1.002 1.002 0 0 1 1.414-.025l1.439 1.39a1 1 0 0 1-1.39 1.44l-1.44-1.39a1 1 0 0 1-.023-1.415Zm12.228 3.085a1 1 0 0 0 .695-.28l1.44-1.39a1 1 0 0 0-1.39-1.44l-1.44 1.39a1 1 0 0 0 .695 1.72ZM11 19a1 1 0 1 1 2 0v2a1 1 0 1 1-2 0v-2Zm6.73-2.857a1 1 0 0 0-1.39 1.439l1.439 1.39c.195.188.445.28.695.28a1 1 0 0 0 .695-1.719l-1.439-1.39Zm-12.899 1.39 1.439-1.39a1 1 0 0 1 1.39 1.439l-1.439 1.39a.996.996 0 0 1-.695.28 1 1 0 0 1-.695-1.719Z" fill="#fff"/></mask><g mask="url(#a)"><path fill="#0D1C2E" d="M0 0h24v24H0z"/></g></svg>